# xmcd
#
# Track frame offsets: 
#        150
#        12529
#        31917
#        51758
#        68567
#        85459
#        110232
#        129300
#        144788
#        164474
#        183893
#        205971
#        224904
#        245499
#
# Disc length: 3582 seconds
#
# Revision: 1
# Processed by: cddbd v1.5.2PL0 Copyright (c) Steve Scherf et al.
# Submitted via: ExactAudioCopyFreeDBPlugin 1.0
#
DISCID=cd0dfc0e
DTITLE=Jay-Z - Kingdom Come [CD1]
DYEAR=2006
DGENRE=Rap
TTITLE0=The Prelude
TTITLE1=Oh My God
TTITLE2=Kingdom Come
TTITLE3=Show Me What You Got
TTITLE4=Lost Ones Feat. Chrissette Michelle
TTITLE5=Do U Wanna Ride Feat. John Legend
TTITLE6=30 Something
TTITLE7=I Made It
TTITLE8=Anything Feat. Usher and Pharrell
TTITLE9=Hollywood Feat. Beyoncé
TTITLE10=Trouble
TTITLE11=Dig A Hole Feat. Sterling Simms
TTITLE12=Minority Report Feat. Ne-Yo
TTITLE13=Beach Chair Feat. Chris Martin
EXTD=
EXTT0=
EXTT1=
EXTT2=
EXTT3=
EXTT4=
EXTT5=
EXTT6=
EXTT7=
EXTT8=
EXTT9=
EXTT10=
EXTT11=
EXTT12=
EXTT13=
PLAYORDER=
